<?xml version="1.0" encoding="utf-8"?>
<svg width="217" height="46" viewBox="0 0 217 46" fill="none" xmlns="http://www.w3.org/2000/svg">
  <path d="M 22.472 23.904 L 32.562 23.904 C 34.864 23.904 37.249 24.044 39.209 25.251 C 40.741 26.195 42.03 27.485 42.974 29.016 C 44.181 30.976 44.322 33.361 44.322 35.663 L 44.322 45.754 L 29.372 45.754 C 27.542 45.754 25.787 45.027 24.493 43.733 C 23.199 42.439 22.472 40.684 22.472 38.854 L 22.472 23.904 Z M 68.472 2.054 C 68.472 2.664 68.229 3.249 67.798 3.68 C 67.367 4.111 66.782 4.354 66.172 4.354 C 65.562 4.354 64.977 4.111 64.545 3.68 C 64.114 3.249 63.872 2.664 63.872 2.054 C 63.872 1.444 64.114 0.859 64.545 0.427 C 64.977 -0.004 65.562 -0.246 66.172 -0.246 C 66.782 -0.246 67.367 -0.004 67.798 0.427 C 68.229 0.859 68.472 1.444 68.472 2.054 Z" fill="#5F6FFF"/>
  <text style="white-space: pre; fill: rgb(51, 51, 51); font-family: Arial, sans-serif; font-size: 28px;" x="69.885" y="22.41"> </text>
  <text style="white-space: pre; fill: rgb(51, 51, 51); font-family: Arial, sans-serif; font-size: 28px;" x="96.184" y="11.545"> </text>
  <text style="white-space: pre; fill: rgb(51, 51, 51); font-family: Arial, sans-serif; font-size: 28px;" x="82.972" y="29.571"> </text>
  <text style="fill: rgb(51, 51, 51); font-family: Arial, sans-serif; font-size: 28px; font-weight: 700; white-space: pre;" x="56.92" y="31.301">NARSO </text>
  <path d="M 149.241 24.3 L 159.331 24.3 C 161.633 24.3 164.018 24.44 165.978 25.647 C 167.51 26.591 168.799 27.881 169.743 29.412 C 170.95 31.372 171.091 33.757 171.091 36.059 L 171.091 46.15 L 156.141 46.15 C 154.311 46.15 152.556 45.423 151.262 44.129 C 149.968 42.835 149.241 41.08 149.241 39.25 L 149.241 24.3 Z M 195.241 2.45 C 195.241 3.06 194.998 3.645 194.567 4.076 C 194.136 4.507 193.551 4.75 192.941 4.75 C 192.331 4.75 191.746 4.507 191.314 4.076 C 190.883 3.645 190.641 3.06 190.641 2.45 C 190.641 1.84 190.883 1.255 191.314 0.823 C 191.746 0.392 192.331 0.15 192.941 0.15 C 193.551 0.15 194.136 0.392 194.567 0.823 C 194.998 1.255 195.241 1.84 195.241 2.45 Z" fill="#5F6FFF" style="stroke-width: 1; transform-box: fill-box; transform-origin: 50% 50%;" transform="matrix(-1, 0, 0, -1, -0.000018, -0.000002)"/>
</svg>